<svg width="640" height="480" viewBox="0 0 640 480" fill="none" xmlns="http://www.w3.org/2000/svg">
    <rect width="640" height="480" rx="32" fill="#E2E8F0" />
    <g stroke="#0F172A" stroke-width="8" stroke-linecap="round" stroke-linejoin="round">
        <path d="M140 180h120l20 32-20 32H140l-20-32 20-32z" fill="#F97316" />
        <path d="M220 180v-40h-40v40" />
        <path d="M220 244v40h-40v-40" />
        <path d="M420 152h96l28 32-28 32h-96l-28-32 28-32z" fill="#FBBF24" />
        <rect x="392" y="152" width="28" height="128" rx="14" fill="#F97316" />
        <rect x="284" y="120" width="56" height="240" rx="28" fill="#94A3B8" />
        <path d="M284 200h-60" />
        <path d="M284 280h-60" />
        <path d="M340 200h60" />
        <path d="M340 280h60" />
    </g>
    <circle cx="320" cy="80" r="28" fill="#F97316" />
    <rect x="120" y="320" width="160" height="32" rx="16" fill="#0F172A" opacity="0.15" />
    <rect x="360" y="340" width="180" height="24" rx="12" fill="#0F172A" opacity="0.12" />
</svg>